<svg xmlns="http://www.w3.org/2000/svg" viewBox="-72 -50 144 144">
  <defs>
    <path id="lens" d="
          M -29.491 0
          c
          -1.147 0
          -2.326 0
          -3.585 0

          -13.604 0
          -27.6 2.262
          -27.6 20.497

          0 12.225
          6.363 26.945
          23.147 26.945

          18.057 0
          31.303 -21.483
          31.303 -33.388

          0 0
          0 -1
          -0.017 1

          0.117 -3.099
          2.415 -5.583
          6.243 -5.583
          V 0

          M 0 7.165
          c
          -3.354 0
          -5.426 1.283
          -6.685 3.237

          -0.5 -3.989
          -3 -6.181
          -7 -7.695
          H 0"
      style="fill:#FFF"/>
  </defs>
  <!--circle r="256" style="fill:24292F"/-->
  <circle cy="22" r="72" style="fill:24292F"/>
  <use href="#lens" transform="scale(1 0.95)"/>
  <use href="#lens" transform="scale(-1 0.95)"/>
</svg>
